<svg version="1.1" id="Layer_1" xmlns="http://www.w3.org/2000/svg" xmlns:xlink="http://www.w3.org/1999/xlink" x="0px" y="0px"
	 width="100%" viewBox="0 0 256 256" enable-background="new 0 0 256 256" xml:space="preserve">
<path fill="#000000" opacity="1.000000" stroke="none" 
	d="
M94.000000,0.999999 
	C96.370560,1.000000 98.741112,1.000000 101.690994,1.301905 
	C110.437790,9.894925 118.609329,18.182037 126.768723,26.481092 
	C128.128647,27.864305 129.529541,28.380714 131.044540,26.779808 
	C139.265839,18.092321 148.482407,10.368258 156.000000,1.000000 
	C158.370560,1.000000 160.741104,1.000000 163.788757,1.242623 
	C193.211990,17.084259 221.937256,32.721912 250.718857,48.255238 
	C257.952850,52.159405 258.557343,55.697170 252.630035,61.593010 
	C245.783127,68.403610 239.105820,75.393211 232.068466,82.000038 
	C228.841507,85.029602 228.860153,86.974144 232.091125,89.998039 
	C239.381439,96.821136 246.339874,104.000267 253.394501,111.073273 
	C258.011780,115.702583 257.780914,118.794983 252.277847,121.964348 
	C245.520142,125.856293 238.641342,129.548111 231.713715,133.130783 
	C227.934006,135.085464 226.216080,137.631989 226.272049,142.146271 
	C226.511475,161.459030 226.294754,180.777054 226.435837,200.091751 
	C226.464661,204.037903 225.216949,206.759048 221.732224,208.625381 
	C204.468124,217.871643 187.202560,227.116150 170.002182,236.480087 
	C157.615524,243.223450 145.330399,250.153320 133.000000,257.000000 
	C130.629440,257.000000 128.258896,257.000000 125.218079,256.753815 
	C95.820702,240.903809 67.136322,225.220245 38.322903,209.777435 
	C33.709305,207.304749 31.425755,204.483490 31.509918,198.967194 
	C31.801851,179.833313 31.597075,160.692169 31.646284,141.553940 
	C31.653460,138.763824 31.486542,136.236221 28.651218,134.732468 
	C19.424849,129.839172 10.215748,124.913322 1.000001,120.000000 
	C1.000000,118.285645 1.000000,116.571281 1.295046,114.275467 
	C9.802333,105.681313 17.920383,97.568512 26.275507,89.707695 
	C29.398148,86.769798 28.952448,84.870361 26.050117,82.069649 
	C17.550751,73.867851 9.329943,65.377373 1.000000,57.000000 
	C1.000000,55.611111 1.000000,54.222221 1.317875,52.278854 
	C11.362893,46.328690 21.066889,40.890690 30.825167,35.551914 
	C37.533642,31.881693 44.306686,28.328741 51.072742,24.764891 
	C53.865875,23.293678 57.163414,22.259995 58.955070,25.550884 
	C60.710175,28.774651 58.377907,31.154640 55.453651,32.715916 
	C54.131824,33.421650 52.837776,34.179203 51.522007,34.896519 
	C40.851772,40.713551 30.176538,46.521420 19.508789,52.342999 
	C13.868945,55.420761 13.704514,56.292984 18.251682,61.022736 
	C22.983852,65.944916 28.039545,70.572586 32.553337,75.682732 
	C35.890499,79.460800 38.783142,79.824524 43.263077,77.352089 
	C67.899559,63.755489 92.711540,50.476994 117.449829,37.064495 
	C118.699516,36.386944 120.342827,36.009403 120.399155,35.360405 
	C113.146851,27.611338 106.489212,20.421013 99.734306,13.323253 
	C97.488625,10.963586 94.966667,11.713372 92.427078,13.087418 
	C86.278206,16.414270 80.112228,19.713064 73.887505,22.894733 
	C70.710693,24.518509 66.835960,27.351969 64.411255,22.589029 
	C62.024990,17.901602 66.614418,16.378534 69.675514,14.630932 
	C77.746918,10.022907 85.887169,5.535458 94.000000,0.999999 
M182.192581,111.775803 
	C167.091812,119.984573 151.991043,128.193344 135.791855,136.999207 
	C144.038528,145.030807 151.304062,152.096268 158.555710,159.175949 
	C160.694656,161.264191 162.717926,160.359818 164.894913,159.165222 
	C171.755585,155.400543 178.657730,151.710892 185.565811,148.033508 
	C188.176697,146.643661 191.127853,145.381989 192.912201,148.839233 
	C194.623718,152.155426 192.193390,154.033859 189.513611,155.485458 
	C183.365753,158.815628 177.236557,162.180328 171.082932,165.499741 
	C157.639755,172.751312 160.071213,172.847687 149.480896,162.331497 
	C144.476624,157.362274 139.482895,152.382446 133.849289,146.775299 
	C133.849289,180.159454 133.849289,212.303101 133.849289,244.174561 
	C135.260269,244.847763 135.981277,244.402435 136.711960,244.007309 
	C161.903137,230.384903 187.081894,216.739426 212.301392,203.169647 
	C215.448364,201.476395 216.846313,199.137863 216.831619,195.563751 
	C216.763138,178.911545 216.825272,162.258850 216.813919,145.606339 
	C216.813156,144.484665 217.001663,143.221710 215.796234,142.501297 
	C214.314255,141.955643 213.176270,142.771881 212.005600,143.359070 
	C209.923172,144.403519 207.894852,145.560638 205.785233,146.544907 
	C203.289612,147.709290 200.773880,147.899811 199.301926,145.080017 
	C197.919556,142.431839 199.589188,140.658615 201.706726,139.320496 
	C203.252808,138.343491 204.883850,137.499191 206.489410,136.618332 
	C217.437500,130.611862 228.413025,124.654846 239.327560,118.588058 
	C243.847733,116.075554 244.043182,114.932350 240.434738,111.117836 
	C235.171417,105.553947 229.560760,100.312302 224.418289,94.642921 
	C221.600616,91.536552 219.140610,91.598175 215.733810,93.503624 
	C204.837387,99.598114 193.809021,105.456734 182.192581,111.775803 
M56.303795,79.872169 
	C53.362919,81.862625 49.584480,82.642273 47.391586,85.666893 
	C48.209351,87.435959 49.693180,87.963577 50.971489,88.655251 
	C75.716095,102.044083 100.499763,115.360970 125.208748,128.815048 
	C128.069366,130.372650 130.333862,130.143677 133.086349,128.646942 
	C157.512878,115.364410 182.004684,102.202003 206.454269,88.961723 
	C207.989105,88.130547 209.966629,87.733780 210.637878,85.698105 
	C209.636246,83.710594 207.652451,83.071724 205.936493,82.142525 
	C182.365982,69.379143 158.717804,56.756897 135.254135,43.800419 
	C130.754944,41.315994 127.209816,41.382874 122.798569,43.810024 
	C100.921989,55.846928 78.904335,67.627419 56.303795,79.872169 
M40.919304,168.500000 
	C40.933784,177.654129 41.010651,186.808823 40.930183,195.962112 
	C40.900501,199.338364 42.216663,201.478210 45.241482,203.098862 
	C70.321228,216.536224 95.337952,230.091202 120.385597,243.588577 
	C121.497131,244.187561 122.610870,245.227142 124.233292,244.108185 
	C124.233292,212.105804 124.233292,179.980560 124.233292,146.293549 
	C116.733803,153.915009 110.095871,160.414963 103.760582,167.197617 
	C100.325478,170.875290 97.112579,171.191147 92.756821,168.767975 
	C77.780830,160.436600 62.657688,152.369370 47.570705,144.238434 
	C45.872669,143.323303 44.315296,141.833939 40.917469,142.629166 
	C40.917469,150.743744 40.917469,159.121872 40.919304,168.500000 
M112.101456,131.473877 
	C88.661949,118.797798 65.191559,106.178123 41.817635,93.382248 
	C38.475643,91.552704 36.239281,91.640900 33.647751,94.593567 
	C29.697010,99.094841 25.402353,103.301926 21.148277,107.527763 
	C11.537489,117.074776 13.490651,115.819649 23.143604,121.097389 
	C46.085815,133.641022 69.070251,146.107620 92.071533,158.542633 
	C94.012398,159.591904 96.290703,161.776413 98.448265,159.726425 
	C106.122879,152.434464 113.559021,144.891510 121.133141,137.396423 
	C118.546524,134.301468 115.312675,133.576828 112.101456,131.473877 
M224.242493,76.770897 
	C228.859848,71.981766 233.560013,67.268929 238.066360,62.377537 
	C241.240509,58.932167 241.038071,54.034531 237.688339,52.164925 
	C216.198761,40.170803 194.631714,28.318985 172.776047,16.997440 
	C168.180832,14.617045 163.867355,14.882661 159.483139,17.324057 
	C156.288284,19.103151 152.966431,20.673206 149.872147,22.609619 
	C144.941986,25.694935 140.860825,29.741055 137.345581,33.880089 
	C137.736115,35.619400 138.740982,36.037128 139.579163,36.491940 
	C165.449463,50.529575 191.349304,64.512871 217.200195,78.586067 
	C219.946808,80.081322 221.909485,79.436714 224.242493,76.770897 
z"/>
</svg>